<svg id="Layer_1" data-name="Layer 1" xmlns="http://www.w3.org/2000/svg" viewBox="0 0 1190.55 317.6"><defs><style>.cls-1,.cls-2{fill:#8bc53f;}.cls-2,.cls-3{fill-rule:evenodd;}.cls-3{fill:#363b45;}</style></defs><title>logo</title><path class="cls-1" d="M643.37,206.81h0c6.23,6.4,14.27,9.6,26,9.6,24.81,0,49.77-21.35,49.77-60.33,0-34.75-23.16-51.56-44-51.56-20,0-27.89,11.43-31.8,17.07v-9a6.16,6.16,0,0,0-6-6H611.51V250.72a5.93,5.93,0,0,0,6,6h25.88Zm0-58.75c1.87-5.39,8.47-17.57,22.68-17.57,8.9,0,21.06,3.41,21.06,26.39,0,25.21-14.68,34.68-26.88,34.68-9.23,0-14.74-3.91-16.86-5.81Z"/><path class="cls-1" d="M787.15,130.49h0c-15.23,0-23.48,11.42-23.48,30.53s8.08,30.54,23.48,30.54,23.48-11.14,23.48-30.54-8.25-30.53-23.48-30.53m55.44,29.79c0,33.12-21.66,56.07-55.2,56.07s-55.2-23.42-55.2-56.07,21.56-56.06,55.2-56.06S842.59,127.16,842.59,160.28Z"/><path class="cls-1" d="M910.85,130.39h0c-15.23,0-23.48,11.42-23.48,30.53s8.07,30.53,23.48,30.53,23.48-11.14,23.48-30.53-8.25-30.53-23.48-30.53m55.44,29.79c0,33.12-21.66,56.07-55.2,56.07s-55.2-23.42-55.2-56.07,21.55-56.06,55.2-56.06S966.29,127.06,966.29,160.18Z"/><path class="cls-2" d="M316,159.1A156.58,156.58,0,1,1,159.41,2.52,156.57,156.57,0,0,1,316,159.1"/><path class="cls-1" d="M429.67,216.13h0c38.74,0,53.07-30.5,38.29-31.72-4-.33-7.51,6.63-29.09,6.63-22.64,0-31.95-11.43-33.34-20.23h60.16c7.76,0,12-6.91,13.15-11.24,4.75-19-5.23-55.33-49.15-55.33-41.81,0-56.65,33.21-56.65,57.14,0,24.12,16.82,54.76,56.64,54.76m.83-86.63c22.66,0,22.29,21,19.16,21l-44.24,0C405.4,144.07,413.91,129.5,430.5,129.5Z"/><path class="cls-1" d="M498.34,179.47h0V106.64h52.09c21.73,0,39.13,11,39.13,30.07,0,12.45-7.51,18.49-12.26,20.84,5.33,1.88,17.24,8.29,17.24,24.28,0,20.69-17.53,31.89-40.91,31.88H530.42c-17.55,0-32.09-6.45-32.09-34.25m65,2h0c0-6.23-3.91-10.63-10.71-10.63H530.2v10.35c0,4.59,3.31,10.12,9.78,10.12h13.53C558,191.29,563.35,187.36,563.35,181.45Zm-3.7-41.32c0-3.3-2.45-9.92-11-9.83H530.2v20.24h18.42C554.91,150.54,559.69,146.7,559.65,140.14Z"/><path class="cls-1" d="M1122.74,208.21V130.32h-27.15a5.88,5.88,0,0,1-6-5.66V106.74h92.12a6,6,0,0,1,6,6v17.57h-33.09v83.5h-25.87a6,6,0,0,1-6-5.62"/><path class="cls-1" d="M981.88,208V106.74h63.54c17.55,0,32.09,6.45,32.09,34.25v72.83h-26a5.91,5.91,0,0,1-6-5.84V140.44a10.17,10.17,0,0,0-10.17-10.12h-21.86v83.5H987.93a6,6,0,0,1-6-5.79"/><path class="cls-3" d="M195.91,190.56c-38.53,0-54.18-29.89-49.93-36.33,2.66-4,18.55,3.4,39.28,3.4,43.57,0,40.28-51.43.55-51.43-41.1,0-62.72,29.68-62.72,59.93,0,44.75,43.72,72.4,93.42,59.49.87-.22,4.4-.81,6.06,2.21,1.74,3.16-.26,6.29-2.5,8.1-24.32,19.57-54.26,26.29-79.2,26.29C20.24,262.21,10.76,56,173.41,56,287,56,303.09,190.56,195.91,190.56"/></svg>